<svg width="51" height="51" viewBox="0 0 51 51" fill="none" xmlns="http://www.w3.org/2000/svg">
<path d="M23.375 36.125H27.625V27.625H36.125V23.375H27.625V14.875H23.375V23.375H14.875V27.625H23.375V36.125ZM25.5 46.75C22.5604 46.75 19.7979 46.201 17.2125 45.1031C14.6271 43.9698 12.3781 42.4469 10.4656 40.5344C8.55313 38.6219 7.03021 36.3729 5.89688 33.7875C4.79896 31.2021 4.25 28.4396 4.25 25.5C4.25 22.5604 4.79896 19.7979 5.89688 17.2125C7.03021 14.6271 8.55313 12.3781 10.4656 10.4656C12.3781 8.55312 14.6271 7.04791 17.2125 5.95C19.7979 4.81667 22.5604 4.25 25.5 4.25C28.4396 4.25 31.2021 4.81667 33.7875 5.95C36.3729 7.04791 38.6219 8.55312 40.5344 10.4656C42.4469 12.3781 43.9521 14.6271 45.05 17.2125C46.1833 19.7979 46.75 22.5604 46.75 25.5C46.75 28.4396 46.1833 31.2021 45.05 33.7875C43.9521 36.3729 42.4469 38.6219 40.5344 40.5344C38.6219 42.4469 36.3729 43.9698 33.7875 45.1031C31.2021 46.201 28.4396 46.75 25.5 46.75ZM25.5 42.5C30.2458 42.5 34.2656 40.8531 37.5594 37.5594C40.8531 34.2656 42.5 30.2458 42.5 25.5C42.5 20.7542 40.8531 16.7344 37.5594 13.4406C34.2656 10.1469 30.2458 8.5 25.5 8.5C20.7542 8.5 16.7344 10.1469 13.4406 13.4406C10.1469 16.7344 8.5 20.7542 8.5 25.5C8.5 30.2458 10.1469 34.2656 13.4406 37.5594C16.7344 40.8531 20.7542 42.5 25.5 42.5Z" fill="#DF6149"/>
</svg>
