<svg width="329" height="329" viewBox="0 0 329 329" fill="none" xmlns="http://www.w3.org/2000/svg">
<rect width="329" height="329" rx="45" fill="#DF6149"/>
<path d="M116.627 52.9621C116.125 52.9753 115.549 53.0174 114.873 53.0174C110.359 53.0174 110.36 53.0176 110.36 78.9872C110.36 104.957 110.359 104.957 105.947 97.9346C97.0877 83.8357 94.9916 80.6417 94.5944 80.6417C93.4993 80.6417 83.1126 88.8124 83.3867 89.4583C83.5606 89.8684 90.6439 104.979 99.1272 123.037C107.611 141.095 114.551 156.093 114.551 156.364C114.551 156.635 114.936 157.246 115.405 157.722C115.875 158.198 116.685 158.421 117.208 158.218C117.73 158.014 121.67 157.843 125.961 157.837C130.252 157.831 134.148 157.579 134.618 157.275C135.489 156.715 135.877 154.306 141.444 114.995C143.154 102.918 145.032 89.8499 145.616 85.9541C146.201 82.0584 146.681 78.4556 146.683 77.9482C146.689 76.7584 137.694 72.4633 136.929 73.2902C136.612 73.6322 134.937 79.6501 133.206 86.6624C131.475 93.6748 129.899 98.934 129.704 98.3496C129.186 96.8035 127.226 88.3397 125.684 80.9959C120.053 54.1755 120.14 52.8695 116.627 52.9621Z" fill="white"/>
<path d="M216.263 49.2559C212.509 49.3307 208.565 51.5558 204.98 56.321C200.438 62.3587 198.808 62.7748 192.674 59.4559C177.191 51.0789 165.307 62.765 171.253 80.52C174.035 88.8264 173.709 90.3015 168.682 92.1726C156.998 96.5219 153.532 102.933 156.766 114.215C160.491 127.203 183.353 134.096 197.847 126.599C201.319 124.803 200.587 123.495 205.067 139.516C207.179 147.066 209.075 153.802 209.281 154.484C209.482 155.149 209.703 155.696 209.779 155.72H209.78C209.781 155.72 209.784 155.72 209.785 155.72C210.331 155.709 232.187 147.895 232.467 147.611C232.751 147.323 229.356 133.306 225.898 120.484C225.504 119.026 225.702 118.891 228.247 118.891C249.311 118.891 263.939 98.9871 252.037 86.5185C249.057 83.3966 246.991 83.1185 240.386 84.9539C232.812 87.0583 232.861 87.1163 232.457 75.8426C231.865 59.3354 224.522 49.0913 216.263 49.2559Z" fill="white"/>
<path d="M232.699 165.397C236.72 165.391 240.314 167.131 241.669 171.107C246.208 184.419 231.409 207.135 222.376 200.721C219.428 198.627 216.643 185.727 217.404 177.698C218.108 170.265 225.998 165.408 232.699 165.397Z" fill="white"/>
<path d="M190.042 156.434C195.948 156.213 202.125 160.903 205.32 169.56C211.337 185.866 198.803 200.182 188.058 189.278C179.342 180.433 176.023 168.751 180.405 162.34C183.051 158.468 186.498 156.567 190.042 156.434Z" fill="white"/>
<path d="M154.532 154.586C155.867 154.523 157.426 156.16 160.913 159.416C171.731 169.515 169.623 190.959 156.335 206.014C138.646 226.055 134.711 228.167 124.618 223.041C98.2614 209.655 82.2309 178.999 92.6227 161.853C97.5844 153.667 96.6697 153.749 104.742 160.763C111.35 166.505 111.35 166.505 116.618 166.088C119.516 165.859 127.312 165.46 133.943 165.202C146 164.734 146 164.734 149.494 159.955C152.085 156.412 153.196 154.649 154.532 154.586ZM195.03 204.194C196.673 204.162 198.325 204.389 199.979 204.876C218.234 210.257 196.49 234.862 177.95 229.804C171.161 227.953 170.383 225.382 174.651 218.902C180.957 209.327 187.912 204.335 195.03 204.194ZM174.282 271.902C210.241 271.909 207.598 271.396 207.324 278.324C207.117 283.574 207.117 283.575 170.737 283.758C154.575 283.84 140.648 283.768 135.754 283.599C134.72 283.563 133.637 282.643 133.55 281.603C133.466 280.597 133.414 279.281 133.414 277.892C133.414 271.584 131.289 271.894 174.282 271.902Z" fill="white"/>
<path d="M62.3397 102.007C61.0175 102.069 56.6636 102.01 54.1099 102.269C44.8253 103.212 46.8276 105.579 48.8969 132.069C55.4751 216.279 89.8321 261.886 150.53 266.983C155.14 267.37 159.384 267.799 159.961 267.934C168.696 269.994 195.648 265.46 210.958 259.356C239.301 248.055 253.293 233.286 267.865 199.285C272.558 188.334 277.618 164.532 279.385 145.098C280.078 137.478 281.105 115.725 281.231 107.783C281.256 106.156 279.886 104.579 278.288 104.446C275.031 104.174 269.822 103.921 267.023 103.907C265.958 103.902 264.958 104.892 264.844 105.972C264.577 108.506 264.151 113.236 263.718 118.548C260.682 155.801 254.184 187.522 246.164 204.243C229.386 239.221 185.026 255.803 138.319 244.557C90.3455 233.007 70.2173 197.383 66.3389 117.166C65.7012 103.975 66.3062 101.822 62.3397 102.007Z" fill="white"/>
</svg>
