<svg width="25" height="25" viewBox="0 0 25 25" fill="none" xmlns="http://www.w3.org/2000/svg">
<path d="M11.4584 4.16666H4.16671C3.61417 4.16666 3.08427 4.38616 2.69357 4.77686C2.30287 5.16756 2.08337 5.69746 2.08337 6.25V20.8333C2.08337 21.3859 2.30287 21.9158 2.69357 22.3065C3.08427 22.6972 3.61417 22.9167 4.16671 22.9167H18.75C19.3026 22.9167 19.8325 22.6972 20.2232 22.3065C20.6139 21.9158 20.8334 21.3859 20.8334 20.8333V13.5417M19.2709 2.60416C19.6853 2.18976 20.2473 1.95695 20.8334 1.95695C21.4194 1.95695 21.9815 2.18976 22.3959 2.60416C22.8103 3.01856 23.0431 3.58061 23.0431 4.16666C23.0431 4.75271 22.8103 5.31476 22.3959 5.72916L12.5 15.625L8.33337 16.6667L9.37504 12.5L19.2709 2.60416Z" stroke="#4B572B" stroke-width="2" stroke-linecap="round" stroke-linejoin="round"/>
</svg>
