<svg width="22" height="20" viewBox="0 0 22 20" fill="none" xmlns="http://www.w3.org/2000/svg">
<g clip-path="url(#clip0_1_257)">
<path d="M16.445 14.95C14.878 16.0358 12.97 16.6374 11 16.6667C4.58332 16.6667 0.916656 10 0.916656 10C2.05689 8.06826 3.63836 6.38052 5.55499 5.05001M9.07499 3.53334C9.70596 3.39908 10.352 3.33196 11 3.33334C17.4167 3.33334 21.0833 10 21.0833 10C20.5269 10.9463 19.8633 11.8373 19.1033 12.6583M12.9433 11.7667C12.6916 12.0123 12.388 12.2093 12.0506 12.3459C11.7133 12.4826 11.3491 12.5561 10.9799 12.562C10.6107 12.5679 10.2439 12.5062 9.90147 12.3804C9.55904 12.2547 9.24798 12.0675 8.98685 11.8301C8.72571 11.5927 8.51985 11.31 8.38154 10.9987C8.24323 10.6874 8.17531 10.3539 8.18182 10.0183C8.18833 9.68259 8.26916 9.35155 8.41946 9.04488C8.56976 8.73822 8.78647 8.46222 9.05666 8.23334M0.916656 0.833344L21.0833 19.1667" stroke="#991800" stroke-width="2" stroke-linecap="round" stroke-linejoin="round"/>
</g>
<defs>
<clipPath id="clip0_1_257">
<rect width="22" height="20" fill="white"/>
</clipPath>
</defs>
</svg>
