<svg width="15" height="18" viewBox="0 0 15 18" fill="none" xmlns="http://www.w3.org/2000/svg">
<path d="M6.37223 17.9661C5.22071 17.8558 4.06905 17.4691 3.0777 16.8599C2.54396 16.5319 1.6339 15.7042 1.26498 15.2112C0.44242 14.112 0.00107248 12.8147 1.61391e-06 11.4929C-0.000682212 10.6488 0.216003 9.5632 0.53028 8.83617C1.02897 7.68252 1.67497 6.84116 3.27988 5.25504C4.54881 4.00097 5.00493 3.45851 5.38362 2.75308C5.67356 2.213 5.79052 1.74745 5.79744 1.10585C5.80061 0.8126 5.78654 0.44382 5.76618 0.286335C5.73143 0.017517 5.73434 0 5.8137 0C5.92757 0 6.41251 0.314256 6.89002 0.697488C7.90217 1.50981 8.58222 2.45824 8.92653 3.53768C9.2318 4.49472 9.25227 5.13895 9.01546 6.33587C8.82991 7.27367 8.83099 7.5306 9.022 7.88751C9.09655 8.0268 9.22955 8.18412 9.38542 8.32666C9.62426 8.54506 10.1266 8.78478 10.461 8.78715C10.5416 8.78772 10.9321 8.83117 11.2881 8.71323C11.3828 8.68186 11.6115 8.57833 11.7622 8.44815C11.9375 8.29674 12.0643 8.10529 12.1767 7.88399C12.2313 7.77667 12.2664 7.6967 12.2899 7.61326C12.3455 7.41607 12.3136 7.07376 12.3875 6.88175C12.4487 6.72257 12.5759 6.84134 12.8568 7.23618C13.8795 8.67354 14.3663 10.5117 14.1709 12.1974C14.0917 12.8808 13.8533 13.5858 13.452 14.324C12.1123 16.7881 9.28096 18.2446 6.37223 17.9661ZM7.9551 16.5604C8.58833 16.4201 9.19235 16.0925 9.69846 15.6146C10.3749 14.976 10.6929 14.2609 10.6936 13.3771C10.694 12.7309 10.5044 12.0458 10.3252 12.0458C10.2907 12.0458 10.1101 12.1397 9.92392 12.2545C9.50615 12.5119 9.21563 12.6033 8.73596 12.628C7.74604 12.679 6.88874 12.1764 6.53063 11.3349C6.33993 10.8869 6.33039 10.8205 6.32061 9.87364C6.31534 9.36317 6.30925 8.9233 6.30708 8.89615C6.30491 8.86899 6.25804 8.84678 6.20292 8.84678C6.13256 8.84678 5.96011 8.97919 5.62426 9.29109C4.70382 10.1459 4.14348 10.8729 3.83807 11.6088C3.71336 11.9092 3.64078 12.1285 3.59673 12.3848C3.52626 12.7948 3.48043 13.4743 3.54431 13.885C3.55688 13.9658 3.57583 14.0427 3.60283 14.1397C3.96729 15.4491 5.17372 16.442 6.62615 16.6278C6.96825 16.6716 7.59712 16.6397 7.9551 16.5604Z" fill="#DF6149"/>
</svg>
