<svg width="23" height="23" viewBox="0 0 23 23" fill="none" xmlns="http://www.w3.org/2000/svg">
<g clip-path="url(#clip0_13_830)">
<path d="M8.71121 8.62508C8.93652 7.9846 9.38123 7.44452 9.96658 7.1005C10.5519 6.75648 11.2402 6.63073 11.9093 6.74551C12.5785 6.8603 13.1855 7.20821 13.6227 7.72763C14.06 8.24705 14.2993 8.90446 14.2983 9.58341C14.2983 11.5001 11.4233 12.4584 11.4233 12.4584M11.5 16.2917H11.5095M21.0833 11.5001C21.0833 16.7928 16.7927 21.0834 11.5 21.0834C6.20723 21.0834 1.91663 16.7928 1.91663 11.5001C1.91663 6.20735 6.20723 1.91675 11.5 1.91675C16.7927 1.91675 21.0833 6.20735 21.0833 11.5001Z" stroke="#4B572B" stroke-width="2" stroke-linecap="round" stroke-linejoin="round"/>
</g>
<defs>
<clipPath id="clip0_13_830">
<rect width="23" height="23" fill="white"/>
</clipPath>
</defs>
</svg>
