<svg width="90" height="90" viewBox="0 0 90 90" fill="none" xmlns="http://www.w3.org/2000/svg">
<path d="M29.3249 6.51367C29.1589 6.51822 28.9685 6.53268 28.7448 6.53268C27.2512 6.53268 27.2513 6.53275 27.2513 15.4536C27.2513 24.3744 27.2512 24.3744 25.7912 21.9622C22.8599 17.1191 22.1663 16.0219 22.0349 16.0219C21.6725 16.0219 18.2358 18.8287 18.3264 19.0505C18.384 19.1914 20.7277 24.3819 23.5347 30.5852C26.3417 36.7884 28.6382 41.9402 28.6382 42.0333C28.6382 42.1265 28.7655 42.3365 28.9209 42.5C29.0762 42.6635 29.3444 42.7399 29.5173 42.6701C29.6902 42.6003 30.9936 42.5414 32.4135 42.5394C33.8334 42.5375 35.1224 42.4507 35.2781 42.3465C35.566 42.154 35.6947 41.3264 37.5364 27.8227C38.1023 23.6742 38.7236 19.185 38.9171 17.8468C39.1105 16.5086 39.2694 15.271 39.2701 15.0967C39.272 14.688 36.2957 13.2126 36.0425 13.4966C35.9377 13.6141 35.3836 15.6813 34.8109 18.0901C34.2381 20.4989 33.7166 22.3055 33.6519 22.1048C33.4808 21.5737 32.832 18.6663 32.3219 16.1436C30.4587 6.93049 30.4875 6.48185 29.3249 6.51367Z" fill="white"/>
<path d="M62.2929 5.24055C61.0507 5.26626 59.7457 6.03061 58.5596 7.66752C57.0567 9.74153 56.5174 9.88448 54.4877 8.74438C49.3647 5.86681 45.4325 9.88108 47.3999 15.9801C48.3203 18.8335 48.2126 19.3402 46.5493 19.9829C42.683 21.477 41.5363 23.6793 42.6066 27.5547C43.8388 32.0164 51.4036 34.3841 56.1992 31.8089C57.3481 31.192 57.1061 30.7424 58.5885 36.246C59.287 38.8396 59.9144 41.1533 59.9826 41.3875C60.0493 41.6162 60.1224 41.8041 60.1474 41.8123H60.1479C60.1481 41.8124 60.1491 41.8123 60.1493 41.8123C60.3301 41.8084 67.5619 39.1243 67.6547 39.0266C67.7485 38.9278 66.6253 34.1128 65.4808 29.7084C65.3506 29.2073 65.4161 29.1609 66.2583 29.1609C73.228 29.1609 78.068 22.3238 74.1298 18.0407C73.1437 16.9683 72.4602 16.8727 70.2746 17.5032C67.7686 18.2261 67.7848 18.246 67.6511 14.3734C67.4552 8.70299 65.0257 5.18402 62.2929 5.24055Z" fill="white"/>
<path d="M67.7314 45.1365C69.0618 45.1343 70.2508 45.7319 70.6994 47.0978C72.2013 51.6708 67.3043 59.474 64.3155 57.2704C63.3403 56.5514 62.4185 52.1199 62.6703 49.3617C62.9034 46.8087 65.514 45.14 67.7314 45.1365Z" fill="white"/>
<path d="M53.6168 42.0576C55.5711 41.9816 57.6149 43.5925 58.672 46.5665C60.6629 52.1676 56.5159 57.0856 52.9603 53.3398C50.0763 50.3016 48.978 46.2886 50.428 44.0863C51.3037 42.7562 52.4442 42.1031 53.6168 42.0576Z" fill="white"/>
<path d="M41.867 41.4227C42.3088 41.401 42.8248 41.9634 43.9786 43.0817C47.5579 46.5508 46.8606 53.9174 42.4639 59.0886C36.6107 65.973 35.3089 66.6985 31.9693 64.9377C23.2483 60.3395 17.944 49.8087 21.3825 43.919C23.0242 41.107 22.7216 41.1353 25.3925 43.5445C27.5791 45.5168 27.5791 45.5169 29.3222 45.3737C30.2809 45.2949 32.8605 45.158 35.0547 45.0695C39.0441 44.9086 39.044 44.9087 40.2002 43.267C41.0574 42.0499 41.4253 41.4444 41.867 41.4227ZM55.2674 58.4637C55.8109 58.4526 56.3575 58.5305 56.9049 58.698C62.9449 60.5462 55.7503 68.9983 49.6158 67.2611C47.3695 66.6249 47.1118 65.7419 48.5241 63.5158C50.6107 60.2267 52.912 58.5119 55.2674 58.4637ZM48.4022 81.7221C60.3004 81.7243 59.4259 81.5481 59.3352 83.9281C59.2666 85.7315 59.2667 85.7318 47.2293 85.7948C41.8815 85.8228 37.2733 85.7982 35.6538 85.74C35.3118 85.7277 34.9535 85.4117 34.9247 85.0544C34.8968 84.7088 34.8795 84.2568 34.8795 83.7798C34.8795 81.6128 34.1764 81.7194 48.4022 81.7221Z" fill="white"/>
<path d="M11.3624 23.3613C10.9249 23.3826 9.48427 23.362 8.6393 23.4512C5.56719 23.775 6.2297 24.5882 6.9144 33.6879C9.091 62.6149 20.4591 78.2815 40.5429 80.0322C42.0685 80.1652 43.4728 80.3125 43.6635 80.3592C46.5539 81.0666 55.4717 79.5092 60.5375 77.4123C69.9157 73.5304 74.5453 68.4569 79.3669 56.7771C80.9197 53.0156 82.5941 44.8392 83.1788 38.1636C83.408 35.5457 83.748 28.0735 83.7896 25.3452C83.7981 24.7864 83.3447 24.2447 82.8159 24.199C81.7381 24.1057 80.0147 24.0187 79.0885 24.014C78.736 24.0123 78.4051 24.3523 78.3675 24.723C78.2792 25.5935 78.1381 27.2184 77.9949 29.0431C76.9904 41.8399 74.8404 52.7365 72.1866 58.4803C66.6351 70.4956 51.9571 76.1918 36.5026 72.3288C20.629 68.3612 13.969 56.124 12.6857 28.5683C12.4746 24.0372 12.6748 23.2975 11.3624 23.3613Z" fill="white"/>
</svg>
