<?xml version="1.0" encoding="UTF-8" standalone="no"?>
<!-- Created with Inkscape (http://www.inkscape.org/) -->

<svg
   version="1.1"
   id="svg1"
   width="1000"
   height="1000"
   viewBox="0 0 1000 1000"
   sodipodi:docname="logo_t_v_w.svg"
   inkscape:version="1.4.2 (f4327f4, 2025-05-13)"
   xmlns:inkscape="http://www.inkscape.org/namespaces/inkscape"
   xmlns:sodipodi="http://sodipodi.sourceforge.net/DTD/sodipodi-0.dtd"
   xmlns="http://www.w3.org/2000/svg"
   xmlns:svg="http://www.w3.org/2000/svg">
  <defs
     id="defs1">
    <inkscape:path-effect
       effect="fillet_chamfer"
       id="path-effect20"
       is_visible="true"
       lpeversion="1"
       nodesatellites_param="F,0,0,1,0,0,0,1 @ F,0,0,1,0,0,0,1 @ F,0,0,1,0,0,0,1 @ F,0,0,1,0,0,0,1 @ F,0,0,1,0,0,0,1 @ F,0,0,1,0,0,0,1 @ F,0,0,1,0,0,0,1 @ F,0,0,1,0,0,0,1 @ F,0,0,1,0,0,0,1 @ F,0,0,1,0,0,0,1 @ F,0,0,1,0,12.519185,0,1 @ F,0,0,1,0,0,0,1 @ F,0,0,1,0,0,0,1 @ F,0,0,1,0,0,0,1 @ F,0,0,1,0,0,0,1 @ F,0,0,1,0,0,0,1 @ F,0,0,1,0,0,0,1 @ F,0,0,1,0,0,0,1 @ F,0,0,1,0,0,0,1 @ F,0,0,1,0,0,0,1 @ F,0,0,1,0,0,0,1 @ F,0,0,1,0,0,0,1 @ F,0,0,1,0,0,0,1 @ F,0,0,1,0,0,0,1 @ F,0,0,1,0,0,0,1 @ F,0,0,1,0,0,0,1 @ F,0,0,1,0,0,0,1 @ F,0,0,1,0,0,0,1 @ F,0,0,1,0,0,0,1 @ F,0,0,1,0,0,0,1 @ F,0,0,1,0,0,0,1 @ F,0,0,1,0,0,0,1 @ F,0,0,1,0,0,0,1 @ F,0,0,1,0,0,0,1"
       radius="0"
       unit="px"
       method="auto"
       mode="F"
       chamfer_steps="1"
       flexible="false"
       use_knot_distance="true"
       apply_no_radius="true"
       apply_with_radius="true"
       only_selected="false"
       hide_knots="false" />
    <inkscape:path-effect
       effect="fillet_chamfer"
       id="path-effect19"
       is_visible="true"
       lpeversion="1"
       nodesatellites_param="F,0,0,1,0,0,0,1 @ F,0,0,1,0,0,0,1 @ F,0,0,1,0,0,0,1 @ F,0,0,1,0,0,0,1 @ F,0,0,1,0,0,0,1 @ F,0,0,1,0,0,0,1 @ F,0,0,1,0,0,0,1 @ F,0,0,1,0,0,0,1 @ F,0,0,1,0,4.1681915,0,1 @ F,0,0,1,0,2.7768998,0,1 @ F,0,0,1,0,0,0,1 @ F,0,0,1,0,0,0,1 @ F,0,0,1,0,0,0,1 @ F,0,0,1,0,0,0,1"
       radius="0"
       unit="px"
       method="auto"
       mode="F"
       chamfer_steps="1"
       flexible="false"
       use_knot_distance="true"
       apply_no_radius="true"
       apply_with_radius="true"
       only_selected="false"
       hide_knots="false" />
    <inkscape:path-effect
       effect="fillet_chamfer"
       id="path-effect18"
       is_visible="true"
       lpeversion="1"
       nodesatellites_param="F,0,0,1,0,0,0,1 @ F,0,0,1,0,0,0,1 @ F,0,0,1,0,0,0,1 @ F,0,0,1,0,0,0,1 @ F,0,0,1,0,0,0,1 @ F,0,0,1,0,0,0,1 @ F,0,0,1,0,0,0,1 @ F,0,0,1,0,0,0,1 @ F,0,0,1,0,0,0,1 | F,0,0,1,0,0,0,1 @ F,0,0,1,0,0,0,1 @ F,0,0,1,0,0,0,1 @ F,0,0,1,0,0,0,1 | F,0,0,1,0,0,0,1 @ F,0,0,1,0,0,0,1 @ F,0,0,1,0,0,0,1 @ F,0,0,1,0,2.6866886,0,1 @ F,0,0,1,0,0,0,1"
       radius="0"
       unit="px"
       method="auto"
       mode="F"
       chamfer_steps="1"
       flexible="false"
       use_knot_distance="true"
       apply_no_radius="true"
       apply_with_radius="true"
       only_selected="false"
       hide_knots="false" />
    <inkscape:path-effect
       effect="fillet_chamfer"
       id="path-effect17"
       is_visible="true"
       lpeversion="1"
       nodesatellites_param="F,0,0,1,0,0,0,1 @ F,0,0,1,0,0,0,1 @ F,0,0,1,0,0,0,1 @ F,0,0,1,0,0,0,1 @ F,0,0,1,0,50.612074,0,1 @ F,0,0,1,0,0,0,1 @ F,0,0,1,0,0,0,1 @ F,0,0,1,0,0,0,1 @ F,0,0,1,0,0,0,1 @ F,0,0,1,0,0,0,1 @ F,0,0,1,0,0,0,1 @ F,0,0,1,0,0,0,1 @ F,0,0,1,0,0,0,1 @ F,0,0,1,0,0,0,1"
       radius="0"
       unit="px"
       method="auto"
       mode="F"
       chamfer_steps="1"
       flexible="false"
       use_knot_distance="true"
       apply_no_radius="true"
       apply_with_radius="true"
       only_selected="false"
       hide_knots="false" />
    <inkscape:path-effect
       effect="fillet_chamfer"
       id="path-effect12"
       is_visible="true"
       lpeversion="1"
       nodesatellites_param="F,0,0,1,0,0,0,1 @ F,0,0,1,0,0,0,1 @ F,0,0,1,0,0,0,1 @ F,0,0,1,0,0,0,1 @ F,0,0,1,0,0,0,1 @ F,0,0,1,0,0,0,1 @ F,0,0,1,0,12.255087,0,1 @ F,0,0,1,0,12.255087,0,1 @ F,0,0,1,0,5.7865703,0,1 @ F,0,0,1,0,0,0,1 @ F,0,0,1,0,0,0,1 @ F,0,0,1,0,4.38848,0,1 @ F,0,0,1,0,0,0,1 @ F,0,0,1,0,4.6322113,0,1 @ F,0,0,1,0,0,0,1 @ F,0,0,1,0,0,0,1 @ F,0,0,1,0,0,0,1 @ F,0,0,1,0,6.6484463,0,1 @ F,0,0,1,0,0,0,1 @ F,0,0,1,0,3.6361645,0,1 @ F,0,0,1,0,0,0,1 @ F,0,0,1,0,0,0,1 @ F,0,0,1,0,0,0,1 @ F,0,0,1,0,0,0,1 @ F,0,0,1,0,0,0,1 @ F,0,0,1,0,0,0,1 @ F,0,0,1,0,0,0,1 @ F,0,0,1,0,11.243275,0,1 @ F,0,0,1,0,0,0,1 @ F,0,0,1,0,1.3154097,0,1 @ F,0,0,1,0,3.0654062,0,1 @ F,0,0,1,0,10.867685,0,1 @ F,0,0,1,0,0,0,1 @ F,0,0,1,0,0,0,1 @ F,0,0,1,0,4.1026373,0,1 @ F,0,0,1,0,0,0,1 | F,0,0,1,0,0,0,1 @ F,0,0,1,0,0,0,1 @ F,0,0,1,0,0,0,1 @ F,0,0,1,0,0,0,1 @ F,0,0,1,0,0,0,1 @ F,0,0,1,0,0,0,1 @ F,0,0,1,0,6.3536076,0,1 @ F,0,0,1,0,0,0,1 @ F,0,0,1,0,0,0,1 @ F,0,0,1,0,7.5312203,0,1 @ F,0,0,1,0,0,0,1 @ F,0,0,1,0,0,0,1 @ F,0,0,1,0,0,0,1 @ F,0,0,1,0,0,0,1 @ F,0,0,1,0,0,0,1 @ F,0,0,1,0,4.9190444,0,1 @ F,0,0,1,0,0,0,1 @ F,0,0,1,0,0,0,1 @ F,0,0,1,0,3.8142032,0,1 @ F,0,0,1,0,0,0,1 @ F,0,0,1,0,0,0,1 @ F,0,0,1,0,4.731055,0,1 @ F,0,0,1,0,0,0,1 @ F,0,0,1,0,0,0,1 @ F,0,0,1,0,0,0,1 @ F,0,0,1,0,0,0,1 @ F,0,0,1,0,0,0,1 @ F,0,0,1,0,0,0,1 @ F,0,0,1,0,0,0,1 @ F,0,0,1,0,0,0,1 | F,0,0,1,0,0,0,1 @ F,0,0,1,0,0,0,1 @ F,0,0,1,0,0,0,1 @ F,0,0,1,0,0,0,1 @ F,0,0,1,0,0,0,1 @ F,0,0,1,0,0,0,1 @ F,0,0,1,0,0,0,1 @ F,0,0,1,0,0,0,1 @ F,0,0,1,0,0,0,1 @ F,0,0,1,0,0,0,1 @ F,0,0,1,0,0,0,1 @ F,0,0,1,0,0,0,1 @ F,0,0,1,0,0,0,1 | F,0,0,1,0,0,0,1 @ F,0,0,1,0,0,0,1 @ F,0,0,1,0,0,0,1 @ F,0,0,1,0,0,0,1 @ F,0,0,1,0,0,0,1 @ F,0,0,1,0,0,0,1 @ F,0,0,1,0,0,0,1 @ F,0,0,1,0,0,0,1 @ F,0,0,1,0,0,0,1 @ F,0,0,1,0,0,0,1 @ F,0,0,1,0,0,0,1 @ F,0,0,1,0,0,0,1 @ F,0,0,1,0,0,0,1 @ F,0,0,1,0,0,0,1 @ F,0,0,1,0,0,0,1 @ F,0,0,1,0,0,0,1 @ F,0,0,1,0,0,0,1 @ F,0,0,1,0,0,0,1 @ F,0,0,1,0,0,0,1 @ F,0,0,1,0,0,0,1 @ F,0,0,1,0,0,0,1 @ F,0,0,1,0,0,0,1 | F,0,0,1,0,0,0,1 @ F,0,0,1,0,0,0,1 @ F,0,0,1,0,0,0,1 @ F,0,0,1,0,0,0,1 @ F,0,0,1,0,0,0,1 @ F,0,0,1,0,0,0,1 | F,0,0,1,0,0,0,1 @ F,0,0,1,0,0,0,1 @ F,0,0,1,0,0,0,1 @ F,0,0,1,0,0,0,1 @ F,0,0,1,0,0,0,1 @ F,0,0,1,0,0,0,1 @ F,0,0,1,0,0,0,1 @ F,0,0,1,0,0,0,1 @ F,0,0,1,0,0,0,1 @ F,0,0,1,0,0,0,1 @ F,0,0,1,0,0,0,1 @ F,0,0,1,0,0,0,1 @ F,0,0,1,0,0,0,1 @ F,0,0,1,0,0,0,1 @ F,0,0,1,0,0,0,1 @ F,0,0,1,0,0,0,1 @ F,0,0,1,0,0,0,1 @ F,0,0,1,0,0,0,1 @ F,0,0,1,0,0,0,1 @ F,0,0,1,0,0,0,1 @ F,0,0,1,0,0,0,1 @ F,0,0,1,0,0,0,1 @ F,0,0,1,0,0,0,1 @ F,0,0,1,0,0,0,1 @ F,0,0,1,0,0,0,1 | F,0,0,1,0,0,0,1 @ F,0,0,1,0,0,0,1 @ F,0,0,1,0,0,0,1 @ F,0,0,1,0,0,0,1 @ F,0,0,1,0,0,0,1 @ F,0,0,1,0,0,0,1 @ F,0,0,1,0,0,0,1 @ F,0,0,1,0,0,0,1 @ F,0,0,1,0,0,0,1 @ F,0,0,1,0,0,0,1 @ F,0,0,1,0,0,0,1 @ F,0,0,1,0,0,0,1 @ F,0,0,1,0,0,0,1 @ F,0,0,1,0,0,0,1 @ F,0,0,1,0,0,0,1 @ F,0,0,1,0,0,0,1 @ F,0,0,1,0,0,0,1 @ F,0,0,1,0,0,0,1 @ F,0,0,1,0,0,0,1 @ F,0,0,1,0,0,0,1 @ F,0,0,1,0,0,0,1 @ F,0,0,1,0,0,0,1 @ F,0,0,1,0,0,0,1 @ F,0,0,1,0,0,0,1 @ F,0,0,1,0,0,0,1 @ F,0,0,1,0,0,0,1 @ F,0,0,1,0,0,0,1 @ F,0,0,1,0,0,0,1 @ F,0,0,1,0,0,0,1 @ F,0,0,1,0,0,0,1 @ F,0,0,1,0,0,0,1 @ F,0,0,1,0,0,0,1 @ F,0,0,1,0,0,0,1 @ F,0,0,1,0,0,0,1 @ F,0,0,1,0,0,0,1 @ F,0,0,1,0,0,0,1 @ F,0,0,1,0,0,0,1 @ F,0,0,1,0,0,0,1 @ F,0,0,1,0,0,0,1 @ F,0,0,1,0,0,0,1 @ F,0,0,1,0,0,0,1 @ F,0,0,1,0,0,0,1 @ F,0,0,1,0,0,0,1 @ F,0,0,1,0,0,0,1 @ F,0,0,1,0,0,0,1 @ F,0,0,1,0,0,0,1 @ F,0,0,1,0,0,0,1 @ F,0,0,1,0,0,0,1 @ F,0,0,1,0,0,0,1 @ F,0,0,1,0,0,0,1 @ F,0,0,1,0,0,0,1 @ F,0,0,1,0,0,0,1 @ F,0,0,1,0,0,0,1 @ F,0,0,1,0,0,0,1 @ F,0,0,1,0,0,0,1 @ F,0,0,1,0,0,0,1 @ F,0,0,1,0,0,0,1 @ F,0,0,1,0,0,0,1 @ F,0,0,1,0,0,0,1 @ F,0,0,1,0,0,0,1 @ F,0,0,1,0,0,0,1 @ F,0,0,1,0,0,0,1 @ F,0,0,1,0,0,0,1 @ F,0,0,1,0,0,0,1 @ F,0,0,1,0,0,0,1 @ F,0,0,1,0,0,0,1 @ F,0,0,1,0,0,0,1 | F,0,0,1,0,0,0,1 @ F,0,0,1,0,0,0,1 @ F,0,0,1,0,0,0,1 @ F,0,0,1,0,0,0,1 @ F,0,0,1,0,0,0,1 @ F,0,0,1,0,0,0,1 @ F,0,0,1,0,0,0,1 @ F,0,0,1,0,0,0,1 @ F,0,0,1,0,0,0,1 @ F,0,0,1,0,0,0,1 @ F,0,0,1,0,0,0,1 @ F,0,0,1,0,0,0,1 @ F,0,0,1,0,0,0,1 @ F,0,0,1,0,0,0,1 @ F,0,0,1,0,0,0,1 @ F,0,0,1,0,0,0,1 @ F,0,0,1,0,0,0,1 @ F,0,0,1,0,0,0,1 @ F,0,0,1,0,0,0,1 @ F,0,0,1,0,0,0,1 @ F,0,0,1,0,0,0,1 @ F,0,0,1,0,0,0,1 @ F,0,0,1,0,0,0,1 @ F,0,0,1,0,0,0,1 @ F,0,0,1,0,0,0,1 @ F,0,0,1,0,0,0,1 @ F,0,0,1,0,0,0,1 @ F,0,0,1,0,0,0,1 @ F,0,0,1,0,0,0,1 @ F,0,0,1,0,0,0,1 @ F,0,0,1,0,0,0,1 @ F,0,0,1,0,0,0,1 @ F,0,0,1,0,0,0,1 @ F,0,0,1,0,0,0,1 @ F,0,0,1,0,0,0,1 @ F,0,0,1,0,0,0,1 @ F,0,0,1,0,0,0,1 @ F,0,0,1,0,0,0,1 @ F,0,0,1,0,0,0,1 @ F,0,0,1,0,0,0,1 @ F,0,0,1,0,0,0,1 @ F,0,0,1,0,0,0,1 @ F,0,0,1,0,0,0,1 @ F,0,0,1,0,0,0,1 @ F,0,0,1,0,0,0,1 | F,0,0,1,0,0,0,1 @ F,0,0,1,0,0,0,1 @ F,0,0,1,0,0,0,1 @ F,0,0,1,0,0,0,1 @ F,0,0,1,0,0,0,1 @ F,0,0,1,0,0,0,1 @ F,0,0,1,0,0,0,1 @ F,0,0,1,0,0,0,1 @ F,0,0,1,0,0,0,1 | F,0,0,1,0,0,0,1 @ F,0,0,1,0,0,0,1 @ F,0,0,1,0,0,0,1 @ F,0,0,1,0,0,0,1 @ F,0,0,1,0,0,0,1 @ F,0,0,1,0,0,0,1 @ F,0,0,1,0,0,0,1 @ F,0,0,1,0,0,0,1 @ F,0,0,1,0,0,0,1 @ F,0,0,1,0,0,0,1 @ F,0,0,1,0,0,0,1 @ F,0,0,1,0,0,0,1 @ F,0,0,1,0,0,0,1 @ F,0,0,1,0,0,0,1 @ F,0,0,1,0,0,0,1 @ F,0,0,1,0,0,0,1 @ F,0,0,1,0,0,0,1 @ F,0,0,1,0,0,0,1 @ F,0,0,1,0,0,0,1 @ F,0,0,1,0,0,0,1 @ F,0,0,1,0,0,0,1 | F,0,0,1,0,0,0,1 @ F,0,0,1,0,0,0,1 @ F,0,0,1,0,0,0,1 @ F,0,0,1,0,0,0,1 @ F,0,0,1,0,0,0,1 @ F,0,0,1,0,0,0,1 @ F,0,0,1,0,0,0,1 @ F,0,0,1,0,0,0,1 @ F,0,0,1,0,0,0,1 @ F,0,0,1,0,0,0,1 | F,0,0,1,0,0,0,1 @ F,0,0,1,0,0,0,1 @ F,0,0,1,0,0,0,1 @ F,0,0,1,0,0,0,1 @ F,0,0,1,0,0,0,1 @ F,0,0,1,0,0,0,1 @ F,0,0,1,0,0,0,1 @ F,0,0,1,0,0,0,1 @ F,0,0,1,0,0,0,1 @ F,0,0,1,0,0,0,1 @ F,0,0,1,0,0,0,1 @ F,0,0,1,0,0,0,1 @ F,0,0,1,0,0,0,1 @ F,0,0,1,0,0,0,1 @ F,0,0,1,0,0,0,1 @ F,0,0,1,0,0,0,1 @ F,0,0,1,0,0,0,1 @ F,0,0,1,0,0,0,1 @ F,0,0,1,0,0,0,1 @ F,0,0,1,0,0,0,1 @ F,0,0,1,0,0,0,1 | F,0,0,1,0,0,0,1 @ F,0,0,1,0,0,0,1 @ F,0,0,1,0,0,0,1 @ F,0,0,1,0,0,0,1 @ F,0,0,1,0,0,0,1 @ F,0,0,1,0,0,0,1 @ F,0,0,1,0,0,0,1 @ F,0,0,1,0,0,0,1 @ F,0,0,1,0,0,0,1 @ F,0,0,1,0,0,0,1 | F,0,0,1,0,0,0,1 @ F,0,0,1,0,0,0,1 @ F,0,0,1,0,0,0,1 @ F,0,0,1,0,0,0,1 @ F,0,0,1,0,0,0,1 @ F,0,0,1,0,0,0,1 @ F,0,0,1,0,0,0,1 @ F,0,0,1,0,0,0,1 @ F,0,0,1,0,0,0,1 @ F,0,0,1,0,0,0,1 @ F,0,0,1,0,0,0,1 @ F,0,0,1,0,0,0,1 @ F,0,0,1,0,0,0,1 @ F,0,0,1,0,0,0,1 @ F,0,0,1,0,0,0,1 | F,0,0,1,0,0,0,1 @ F,0,0,1,0,0,0,1 @ F,0,0,1,0,0,0,1 @ F,0,0,1,0,0,0,1 @ F,0,0,1,0,0,0,1 @ F,0,0,1,0,0,0,1 @ F,0,0,1,0,0,0,1 @ F,0,0,1,0,0,0,1 @ F,0,0,1,0,0,0,1 @ F,0,0,1,0,0,0,1 @ F,0,0,1,0,0,0,1 @ F,0,0,1,0,0,0,1 @ F,0,0,1,0,0,0,1 @ F,0,0,1,0,0,0,1 @ F,0,0,1,0,0,0,1 @ F,0,0,1,0,0,0,1 @ F,0,0,1,0,0,0,1 @ F,0,0,1,0,0,0,1 @ F,0,0,1,0,0,0,1 @ F,0,0,1,0,0,0,1 @ F,0,0,1,0,0,0,1 @ F,0,0,1,0,0,0,1 @ F,0,0,1,0,0,0,1 @ F,0,0,1,0,0,0,1 | F,0,0,1,0,0,0,1 @ F,0,0,1,0,0,0,1 @ F,0,0,1,0,0,0,1 @ F,0,0,1,0,0,0,1 @ F,0,0,1,0,0,0,1 @ F,0,0,1,0,0,0,1 @ F,0,0,1,0,0,0,1 @ F,0,0,1,0,0,0,1 @ F,0,0,1,0,0,0,1 @ F,0,0,1,0,0,0,1 @ F,0,0,1,0,0,0,1 @ F,0,0,1,0,0,0,1 @ F,0,0,1,0,0,0,1 @ F,0,0,1,0,0,0,1 @ F,0,0,1,0,0,0,1 @ F,0,0,1,0,0,0,1 @ F,0,0,1,0,0,0,1 @ F,0,0,1,0,0,0,1 @ F,0,0,1,0,0,0,1 @ F,0,0,1,0,0,0,1 @ F,0,0,1,0,0,0,1 @ F,0,0,1,0,0,0,1 @ F,0,0,1,0,0,0,1 @ F,0,0,1,0,0,0,1 @ F,0,0,1,0,0,0,1 @ F,0,0,1,0,0,0,1 @ F,0,0,1,0,0,0,1 @ F,0,0,1,0,0,0,1 @ F,0,0,1,0,0,0,1 @ F,0,0,1,0,0,0,1 @ F,0,0,1,0,0,0,1 @ F,0,0,1,0,0,0,1 @ F,0,0,1,0,0,0,1 @ F,0,0,1,0,0,0,1 @ F,0,0,1,0,0,0,1 @ F,0,0,1,0,0,0,1 @ F,0,0,1,0,0,0,1 @ F,0,0,1,0,0,0,1 @ F,0,0,1,0,0,0,1 @ F,0,0,1,0,0,0,1 @ F,0,0,1,0,0,0,1 @ F,0,0,1,0,0,0,1 @ F,0,0,1,0,0,0,1 @ F,0,0,1,0,0,0,1 @ F,0,0,1,0,0,0,1 @ F,0,0,1,0,0,0,1 @ F,0,0,1,0,0,0,1 @ F,0,0,1,0,0,0,1 @ F,0,0,1,0,0,0,1 @ F,0,0,1,0,0,0,1 @ F,0,0,1,0,0,0,1"
       radius="0"
       unit="px"
       method="auto"
       mode="F"
       chamfer_steps="1"
       flexible="false"
       use_knot_distance="true"
       apply_no_radius="true"
       apply_with_radius="true"
       only_selected="false"
       hide_knots="false" />
  </defs>
  <sodipodi:namedview
     id="namedview1"
     pagecolor="#ffffff"
     bordercolor="#000000"
     borderopacity="0.25"
     inkscape:showpageshadow="2"
     inkscape:pageopacity="0.0"
     inkscape:pagecheckerboard="0"
     inkscape:deskcolor="#d1d1d1"
     showgrid="false"
     inkscape:zoom="0.98570685"
     inkscape:cx="418.98867"
     inkscape:cy="521.96046"
     inkscape:window-width="1920"
     inkscape:window-height="991"
     inkscape:window-x="-9"
     inkscape:window-y="-9"
     inkscape:window-maximized="1"
     inkscape:current-layer="g1" />
  <g
     inkscape:groupmode="layer"
     inkscape:label="Image"
     id="g1">
    <g
       id="g17"
       style="fill:#ffffff">
      <path
         d="m 902.38672,608.92383 c -23.32341,-0.69989 -38.71625,5.35468 -40.8086,16.50781 -0.43645,2.32756 -0.15725,4.73275 0.80079,6.89844 l 0.4707,1.06445 c 1.665,3.365 4.18037,6.23654 7.29687,8.33008 2.94484,2.16771 9.40352,6.33518 14.35352,9.26172 18.78229,11.1045 26.48498,16.23215 29.44336,19.60156 1.94088,2.16548 3.02736,4.96327 3.05664,7.87109 0.0639,2.65942 -0.79121,4.57637 -2.47656,6.63457 -1.34053,1.63709 -4.84981,4.01548 -7.75,5.32617 -4.13571,2.1878 -13.60578,3.69729 -20.51391,3.89712 -0.84897,0.0246 -1.69794,0.0253 -2.54664,-0.004 -6.58907,-0.39926 -13.12511,-1.42538 -19.51953,-3.06445 l -7.30664,-2.04883 0.30664,2.14258 0.30664,2.14453 6,1.16406 c 3.3,0.6412 8.25,1.61631 11,2.16602 26.44309,5.28581 52.76573,-6.97278 48.55469,-22.61133 -0.6965,-2.58786 -2.11181,-4.92549 -4.08203,-6.74219 l -1.31446,-1.21094 c -4.9193,-4.53446 -3.84726,-3.83364 -25.06054,-16.36133 -8.50239,-5.02115 -14.48331,-8.95612 -18.47852,-12.24609 -4.55542,-3.7513 -6.57789,-8.4605 -6.58789,-8.50391 -0.46494,-1.6285 -0.3454,-3.36835 0.33789,-4.91796 0.3337,-0.64531 0.87061,-1.69737 1.27734,-2.29883 2.73854,-4.04966 8.68789,-7.74773 14.67579,-9 5.58579,-0.93218 11.26754,-1.14943 16.9082,-0.64649 L 902,612.33789 c 6.875,0.33103 13.5125,0.89455 14.75,1.25 l 2.25,0.64453 v -1.97265 -1.97461 l -6.14648,-0.64258 c -3.63995,-0.38045 -7.13489,-0.61877 -10.4668,-0.71875 z"
         style="display:inline;fill:#ffffff"
         id="path17"
         sodipodi:nodetypes="sssccsccscsccccccscccssccscccccccss"
         inkscape:path-effect="#path-effect20"
         inkscape:original-d="m 902.38672,608.92383 c -23.32341,-0.69989 -38.71625,5.35468 -40.8086,16.50781 -0.43645,2.32756 -0.15725,4.73275 0.80079,6.89844 l 0.4707,1.06445 c 1.665,3.365 4.18037,6.23654 7.29687,8.33008 2.94484,2.16771 9.40352,6.33518 14.35352,9.26172 18.78229,11.1045 26.48498,16.23215 29.44336,19.60156 1.94088,2.16548 3.02736,4.96327 3.05664,7.87109 0.0639,2.65942 -0.79121,4.57637 -2.47656,6.63457 -1.34053,1.63709 -4.84981,4.01548 -7.75,5.32617 -2.51588,1.33091 -5.24542,2.22842 -8.07032,2.57617 -4.97074,0.61191 -9.98501,1.49117 -14.99023,1.31661 -6.58907,-0.39926 -13.12511,-1.42538 -19.51953,-3.06445 l -7.30664,-2.04883 0.30664,2.14258 0.30664,2.14453 6,1.16406 c 3.3,0.6412 8.25,1.61631 11,2.16602 26.44309,5.28581 52.76573,-6.97278 48.55469,-22.61133 -0.6965,-2.58786 -2.11181,-4.92549 -4.08203,-6.74219 l -1.31446,-1.21094 c -4.9193,-4.53446 -3.84726,-3.83364 -25.06054,-16.36133 -8.50239,-5.02115 -14.48331,-8.95612 -18.47852,-12.24609 -4.55542,-3.7513 -6.57789,-8.4605 -6.58789,-8.50391 -0.46494,-1.6285 -0.3454,-3.36835 0.33789,-4.91796 0.3337,-0.64531 0.87061,-1.69737 1.27734,-2.29883 2.73854,-4.04966 8.68789,-7.74773 14.67579,-9 5.58579,-0.93218 11.26754,-1.14943 16.9082,-0.64649 L 902,612.33789 c 6.875,0.33103 13.5125,0.89455 14.75,1.25 l 2.25,0.64453 v -1.97265 -1.97461 l -6.14648,-0.64258 c -3.63995,-0.38045 -7.13489,-0.61877 -10.4668,-0.71875 z" />
      <path
         d="m 644,610 -0.0117,3.75 c -0.0258,7.76444 -3.03947,61.13561 -3.9668,70.25 -0.53161,5.225 -0.97924,10.0625 -0.99414,10.75 L 639,696 h 3.35547 3.35547 l 0.6914,-15.75 c 0.38017,-8.6625 1.09088,-20.7 1.57813,-26.75 0.48724,-6.05 1.1941,-17.1875 1.57226,-24.75 0.84843,-16.96695 -4.88217,-20.54524 42.8418,26.75 l 40.86719,40.5 h 5.21289 5.21094 l 0.61914,-18.25 c 0.62368,-18.3744 3.39172,-62.7465 4.11718,-66 L 748.8125,610 h -3.33398 -3.33399 l -0.52148,5.25 c -0.28605,2.8875 -1.04338,15.825 -1.6836,28.75 -1.81003,36.54136 -2.46449,46.85707 -3.00586,47.39844 -0.27533,0.27533 -18.93506,-17.91902 -41.46679,-40.43164 L 654.5,610.03516 l -5.25,-0.0176 z"
         style="display:inline;fill:#ffffff"
         id="path16" />
      <path
         d="m 485.5,610.02148 -5,0.0215 -5,0.0215 -4.73633,6.7168 c -2.6047,3.69503 -7.1047,9.93857 -10,13.87305 -2.8953,3.93449 -8.63867,11.74636 -12.76367,17.35937 -4.125,5.61302 -10.53524,14.3182 -14.24414,19.3457 -7.07965,9.59664 -17.29594,23.51729 -19.62695,26.74219 L 412.75586,696 l 3.87305,-0.0215 3.87109,-0.0215 6.27344,-9.22851 C 430.22425,681.65274 436.52751,672.55 440.7793,666.5 l 7.73047,-11 h 26.92382 26.92188 l 9.81055,19.5 c 5.39556,10.725 9.94009,19.87113 10.09765,20.32422 0.15755,0.4531 1.90303,0.67809 3.87891,0.5 L 529.73437,695.5 515.11719,667.81641 C 507.07778,652.59013 497.125,633.35653 493,625.07617 Z M 479.83008,614 c 0.42453,0 1.73832,1.9125 2.91992,4.25 1.18161,2.3375 5.54832,10.6625 9.70508,18.5 l 7.55859,14.25 h -24.08984 c -13.24959,0 -23.94115,-0.34496 -23.75781,-0.76758 C 453.05024,648.19413 479.15806,614 479.83008,614 Z"
         style="display:inline;fill:#ffffff"
         id="path15" />
      <path
         d="m 265.36523,610 -3.86523,0.002 -0.25977,7.74805 c -1.01325,30.1329 -3.90111,75.89307 -4.89062,77.49414 C 256.09289,695.65951 271.43395,696 290.44141,696 H 325 v -1.5 -1.5 h -30.61328 -30.61133 l 0.66797,-14.25 c 0.87716,-18.71923 3.37886,-56.8512 4.16601,-63.5 l 0.6211,-5.25 z"
         style="display:inline;fill:#ffffff"
         id="path14" />
      <path
         d="m 79,610 v 5.06445 c 0,16.19751 -3.399852,73.67296 -4.654297,78.68555 l -0.5625,2.25 h 3.974609 3.972657 l 0.662109,-14.75 c 0.363394,-8.1125 1.106047,-24.875 1.652344,-37.25 0.546297,-12.375 1.24406,-24.44927 1.548828,-26.83203 l 0.552734,-4.33203 22.177736,0.33203 17.44531,0.26172 a 21.026926,21.026926 0 0 1 8.97461,2.16015 l 0.49805,0.2461 c 5.58226,2.74913 8.76347,6.79346 9.46679,12.03711 a 12.220344,12.220344 0 0 1 -1.22461,7.17968 l -0.34179,0.66797 c -2.65893,5.21192 -9.10393,10.71682 -15.00977,12.82227 a 32.426244,32.426244 0 0 1 -9.54687,1.85547 L 111.5,650.69141 c -6.6,0.27309 -13.9125,0.053 -16.25,-0.49024 L 91,649.21289 v 1.35742 c 0,2.13479 2.904245,3.1668 11,3.90625 a 68.10464,68.10464 0 0 0 14.96875,-0.28515 l 5.30664,-0.68946 c 5.49835,-0.71428 9.73567,-2.74111 12.92383,-4.17187 a 29.436867,29.436867 0 0 0 9.66601,-6.79883 c 8.93498,-9.6933 7.98379,-20.43975 -2.45898,-27.77344 C 136.70958,610.75718 130.5005,610 103.36328,610 Z"
         style="display:inline;fill:#ffffff"
         id="path13" />
    </g>
    <g
       id="g10"
       style="fill:#ffffff">
      <path
         d="m 921.37695,340.19922 c 11.80837,-0.3369 10.94263,5.78761 7.65235,74.80078 -1.20803,25.33829 -1.19227,89.91797 0.0273,111 1.82858,31.60837 2.35508,71.79908 0.96289,73.47656 -2.03334,2.45003 -72.12656,2.27383 -74.58789,-0.1875 -1.88121,-1.88121 -1.90127,0.35832 0.70898,-82.39258 1.56016,-49.46043 3.0385,-50.5164 -24.60742,17.60352 -5.1339,12.65 -10.96198,26.98232 -12.95117,31.84961 -1.9892,4.86729 -5.91591,14.54229 -8.72461,21.5 -6.95084,17.21861 -13.14958,21.13508 -25.54883,16.14062 -3.55014,-1.43 -10.01804,-14.84435 -30.61328,-63.49023 -13.08103,-30.89736 -24.64021,-56.85009 -25.82226,-57.97852 -0.76088,-0.72636 -0.86099,15.91815 -0.34961,57.50586 0.86532,70.37045 6.47668,61.06653 -36.64258,60.73633 -39.04365,-0.29898 -36.76734,4.12592 -33.41797,-65.00586 1.98517,-40.97435 1.96357,-83.52259 -0.0723,-143.18164 -1.49757,-43.88501 -1.50119,-48.02263 -0.0391,-49.0918 1.74139,-1.27334 27.65976,-2.48437 53.1543,-2.48437 18.72034,0 15.73231,-2.70369 28.73633,26 6.01036,13.26662 7.17375,15.83141 9.75781,21.5 1.50432,3.3 3.74846,8.25 4.98633,11 3.37251,7.49227 7.94564,17.49544 10.05859,22 1.03196,2.2 6.55102,14.29338 12.26367,26.87305 C 786.44692,470.69832 790.67314,478 793.45703,478 c 2.10526,0 5.93936,-7.59392 35.59375,-70.5 2.33346,-4.95 7.10139,-15.02173 10.5957,-22.38086 C 843.14079,377.76001 846,371.59706 846,371.42383 c 0,-1.40037 13.11171,-27.39296 14.53711,-28.81836 1.68209,-1.68209 3.5098,-1.80727 21.89844,-1.50391 11.03512,0.18205 25.91882,-0.0554 33.07422,-0.52734 2.2341,-0.14736 4.18027,-0.32687 5.86718,-0.375 z"
         style="fill:#ffffff"
         id="path10" />
      <path
         d="M 410.9707,269.92187 C 410.25223,269.94056 409.42867,270 408.46094,270 401.99948,270 402,270.00029 402,306.66406 c 0,36.66378 -4.9e-4,36.66378 -6.31641,26.75 C 383.00249,313.50918 380.00208,309 379.43359,309 c -1.56767,0 -16.43524,11.5353 -16.04297,12.44727 0.24902,0.5789 10.38808,21.91154 22.53125,47.40625 C 398.06503,394.34822 408,415.5215 408,415.9043 c 0,0.38279 0.55063,1.24594 1.22266,1.91797 0.67202,0.672 1.83211,0.98623 2.58007,0.69921 0.74797,-0.28703 6.38678,-0.52911 12.5293,-0.53711 6.14251,-0.008 11.71864,-0.3648 12.39258,-0.79296 1.24541,-0.79121 1.80188,-4.19233 9.76953,-59.69141 2.44776,-17.05 5.1359,-35.5 5.97266,-41 0.83676,-5.5 1.52434,-10.58633 1.52734,-11.30273 0.008,-1.67983 -12.86731,-7.74362 -13.96289,-6.57618 -0.45316,0.48289 -2.85042,8.97891 -5.32813,18.87891 -2.4777,9.9 -4.73386,17.325 -5.01367,16.5 -0.74036,-2.18288 -3.54693,-14.13197 -5.7539,-24.5 -8.06008,-37.86503 -7.9355,-39.70891 -12.96485,-39.57813 z"
         style="fill:#ffffff"
         id="path9" />
      <path
         d="m 553.5918,264.68945 c -5.37379,0.10563 -11.01905,3.24707 -16.15039,9.97461 -6.50156,8.52398 -8.83446,9.11147 -17.61524,4.42578 -22.16248,-11.82656 -39.17328,4.67175 -30.66211,29.73828 3.98184,11.72703 3.51581,13.80956 -3.67969,16.45118 -16.72579,6.14041 -21.68682,15.19188 -17.05664,31.11914 5.33078,18.33723 38.05643,28.06835 58.80274,17.48437 4.96997,-2.53549 3.9232,-4.38316 10.33594,18.23633 3.02195,10.65922 5.73608,20.16836 6.03125,21.13086 0.28825,0.93994 0.60472,1.71231 0.71289,1.74609 0,0 0.002,0 0.002,0 8.1e-4,8e-5 0.005,2e-5 0.006,0 0.78225,-0.016 32.06734,-11.0478 32.46875,-11.44922 0.40583,-0.40582 -4.45317,-20.19527 -9.4043,-38.29687 -0.56332,-2.05954 -0.27995,-2.25 3.36328,-2.25 30.15172,0 51.08944,-28.09998 34.05274,-45.70313 -4.26573,-4.40756 -7.22264,-4.80018 -16.67774,-2.20898 -10.84129,2.9711 -10.77096,3.05292 -11.34961,-12.86328 -0.84726,-23.30486 -11.35735,-37.76753 -23.17968,-37.53516 z"
         style="fill:#ffffff"
         id="path8" />
      <path
         d="m 577.11914,428.6582 c 5.75559,-0.009 10.89925,2.44696 12.83984,8.06055 6.49721,18.79467 -14.6874,50.86496 -27.61718,41.80859 -4.21893,-2.95506 -8.20641,-21.1682 -7.11719,-32.5039 1.00821,-10.49262 12.30188,-17.35085 21.89453,-17.36524 z"
         style="fill:#ffffff"
         id="path7" />
      <path
         d="m 516.05859,416.00391 c 8.45454,-0.31211 17.29608,6.30863 21.86914,18.53125 8.6129,23.02003 -9.3276,43.23249 -24.70898,27.83789 -12.47628,-12.48701 -17.22767,-28.97989 -10.95508,-38.03125 3.7882,-5.46638 8.7222,-8.15063 13.79492,-8.33789 z"
         style="fill:#ffffff"
         id="path6" />
      <path
         d="m 465.22852,413.39453 c 1.91105,-0.0892 4.14323,2.22218 9.13476,6.81836 15.48429,14.25786 12.46771,44.53372 -6.55273,65.78711 -25.32125,28.29391 -30.95303,31.27589 -45.40039,24.03906 -37.72752,-18.89812 -60.67381,-62.17893 -45.79883,-86.38476 7.10217,-11.55725 5.79289,-11.44076 17.34765,-1.53907 9.45926,8.10598 9.45926,8.10607 17,7.51758 4.1474,-0.32367 15.30674,-0.88626 24.79883,-1.25 17.25836,-0.66133 17.25803,-0.66122 22.25977,-7.4082 3.70828,-5.0022 5.29988,-7.49089 7.21094,-7.58008 z m 57.9707,70.03711 c 2.35142,-0.0457 4.71603,0.27451 7.08398,0.96289 26.12943,7.59603 -4.9949,42.33305 -31.5332,35.19336 -9.71769,-2.61438 -10.83214,-6.24356 -4.72266,-15.39258 9.02694,-13.51793 18.98237,-20.56545 29.17188,-20.76367 z M 493.5,579.02148 c 51.47206,0.009 47.68892,-0.71499 47.29687,9.06641 -0.29708,7.41189 -0.29658,7.41305 -52.37109,7.67188 -23.13462,0.11498 -43.06995,0.0139 -50.07597,-0.22503 -1.4798,-0.0505 -3.02961,-1.34929 -3.15436,-2.81768 C 435.07478,591.29649 435,589.43861 435,587.47852 c 0,-8.90635 -3.04149,-8.46826 58.5,-8.45704 z"
         id="path5"
         inkscape:path-effect="#path-effect18"
         inkscape:original-d="m 465.22852,413.39453 c 1.91105,-0.0892 4.14323,2.22218 9.13476,6.81836 15.48429,14.25786 12.46771,44.53372 -6.55273,65.78711 -25.32125,28.29391 -30.95303,31.27589 -45.40039,24.03906 -37.72752,-18.89812 -60.67381,-62.17893 -45.79883,-86.38476 7.10217,-11.55725 5.79289,-11.44076 17.34765,-1.53907 9.45926,8.10598 9.45926,8.10607 17,7.51758 4.1474,-0.32367 15.30674,-0.88626 24.79883,-1.25 17.25836,-0.66133 17.25803,-0.66122 22.25977,-7.4082 3.70828,-5.0022 5.29988,-7.49089 7.21094,-7.58008 z m 57.9707,70.03711 c 2.35142,-0.0457 4.71603,0.27451 7.08398,0.96289 26.12943,7.59603 -4.9949,42.33305 -31.5332,35.19336 -9.71769,-2.61438 -10.83214,-6.24356 -4.72266,-15.39258 9.02694,-13.51793 18.98237,-20.56545 29.17188,-20.76367 z M 493.5,579.02148 c 51.47206,0.009 47.68892,-0.71499 47.29687,9.06641 -0.29708,7.41189 -0.29658,7.41305 -52.37109,7.67188 -28.64097,0.14235 -52.37847,-0.0465 -52.75,-0.41797 C 435.30426,594.97028 435,591.43232 435,587.47852 c 0,-8.90635 -3.04149,-8.46826 58.5,-8.45704 z"
         style="fill:#ffffff" />
      <path
         d="m 333.26367,339.16406 c -1.89256,0.0874 -8.12477,0.003 -11.78017,0.36926 -13.2901,1.33093 -10.42408,4.67316 -7.46202,42.07215 9.41607,118.88713 58.59524,183.27533 145.47852,190.4707 6.6,0.54659 12.675,1.15192 13.5,1.34375 12.50399,2.90748 51.0832,-3.49343 72.99805,-12.11133 40.57068,-15.9542 60.59853,-36.80588 81.45703,-84.80859 6.71761,-15.45956 13.96092,-49.06364 16.49023,-76.5 0.99185,-10.75903 2.46238,-41.46925 2.64234,-52.68247 0.0369,-2.29634 -1.92465,-4.52279 -4.21192,-4.71077 -4.663,-0.38325 -12.11834,-0.74072 -16.12502,-0.76029 -1.52506,-0.007 -2.9565,1.39042 -3.11916,2.91416 -0.38189,3.57765 -0.99242,10.25571 -1.61202,17.75499 -4.34539,52.59368 -13.64636,97.3779 -25.12695,120.98438 -24.01584,49.38159 -87.51387,72.7923 -154.3711,56.91602 -68.66987,-16.30672 -97.4816,-66.60053 -103.0332,-179.85157 -0.91289,-18.62265 -0.0469,-21.66244 -5.72461,-21.40039 z"
         id="path4"
         sodipodi:nodetypes="scsssssssssssss"
         inkscape:path-effect="#path-effect19"
         inkscape:original-d="m 333.26367,339.16406 c -1.89256,0.0874 -8.12477,0.003 -11.78017,0.36926 -13.2901,1.33093 -10.42408,4.67316 -7.46202,42.07215 9.41607,118.88713 58.59524,183.27533 145.47852,190.4707 6.6,0.54659 12.675,1.15192 13.5,1.34375 12.50399,2.90748 51.0832,-3.49343 72.99805,-12.11133 40.57068,-15.9542 60.59853,-36.80588 81.45703,-84.80859 6.71761,-15.45956 13.96092,-49.06364 16.49023,-76.5 1.21423,-13.17125 3.14583,-56.24284 2.54883,-56.83984 -0.63081,-0.63082 -22.64075,-1.73166 -23,-1.15039 -0.17793,0.2879 -1.06652,9.5149 -1.97461,20.50585 -4.34539,52.59368 -13.64636,97.3779 -25.12695,120.98438 -24.01584,49.38159 -87.51387,72.7923 -154.3711,56.91602 -68.66987,-16.30672 -97.4816,-66.60053 -103.0332,-179.85157 -0.91289,-18.62265 -0.0469,-21.66244 -5.72461,-21.40039 z"
         style="fill:#ffffff" />
      <path
         d="m 72.054687,338.48242 c -3.14343,0.99768 -3.238798,2.86225 -2.017578,39.51758 1.334866,40.06647 0.953508,38.2556 11.458985,54.5 2.489848,3.85 8.444137,13.075 13.230468,20.5 4.786332,7.425 17.486528,26.55 28.222658,42.5 22.49794,33.4238 21.80702,30.69741 18.53906,73.24414 -2.23069,29.04222 -2.57094,27.99206 9.51172,29.3418 7.47793,0.83534 59.87647,0.29168 64.75977,-0.67188 4.63772,-0.9151 4.72825,-1.89921 3.23242,-35.08594 -1.54708,-34.32367 -1.65509,-33.65369 7.27734,-45.35742 25.26414,-33.10236 44.99411,-62.9472 59.80859,-90.4707 5.90059,-10.96257 9.27087,-80.14143 4.20899,-86.39258 -2.02434,-2.49995 -73.69637,-1.27043 -75.60156,1.29688 -0.8067,1.08705 -0.70031,4.1223 1.42773,41.31054 1.32524,23.15921 1.02762,23.84193 -26.15039,60.00196 -8.59521,11.43584 -7.95067,11.18688 -13.16992,5.04492 -29.87788,-35.16 -32.01258,-40.34819 -31.21094,-75.86914 0.40084,-17.76104 0.31609,-30.83731 -0.20312,-31.15821 -1.30803,-0.8084 -71.117131,-2.95246 -73.324223,-2.25195 z"
         style="fill:#ffffff"
         id="path3" />
    </g>
  </g>
</svg>
