<?xml version="1.0" encoding="UTF-8" standalone="no"?>
<!-- Created with Inkscape (http://www.inkscape.org/) -->

<svg
   version="1.1"
   id="svg1"
   width="100"
   height="100"
   viewBox="0 0 100 100"
   xmlns="http://www.w3.org/2000/svg"
   xmlns:svg="http://www.w3.org/2000/svg">
  <defs
     id="defs1" />
  <g
     id="g1">
    <path
       style="fill:#a4801a;stroke:none;fill-opacity:1"
       d="m 88,96.005177 v -3.994826 l -55,-1.6e-4 C 27.980721,92.00648 17.374771,92.55418 17.269886,85.019407 17.164936,77.479894 28.078308,78.032257 33,78.028615 l 55,-1.53e-4 V 4.1241915 L 40.258732,3.9624839 C 33.489381,3.9395549 24.340965,2.4142955 18.347912,6.2008413 11.393185,10.59499 12.259207,18.768424 12.258736,25.934023 L 12,74.033637 c 1.07e-4,6.771197 -1.1347,15.176646 5.309011,19.543357 5.844286,3.9605 14.998362,2.428183 21.690989,2.428183 H 88 M 84,8.119017 v 65.91462 C 59.452798,74.829888 21.372743,71.228801 16,77.029756 l 0.258732,-48.099613 c 2e-6,-5.423578 -0.904095,-13.028246 3.330673,-17.257539 C 23.824157,7.4433259 31.828177,7.9385216 37.258732,7.9573094 L 84,8.119017 M 43.264964,44.101215 43.761848,43.559886 C 39.428713,39.734048 34.71833,38.067379 32.91767,23.660838 c 7.76938,8.597228 13.189582,11.965469 15.574954,13.773505 3.99619,3.297906 -19.342707,-22.84379 -19.231942,-16.874152 0.39502,21.289521 13.757946,25.056608 13.098719,24.478928 M 28,63.047867 29,64.046573 C 38.900261,58.531096 44.307404,48.118789 53.755616,42.111194 58.809598,38.897648 65.063568,40.477306 69.596252,35.785138 73.220192,32.033696 75.53228,24.998261 71.314178,20.788557 67.06279,16.54564 60.35669,18.976612 56.556774,22.500003 51.791958,26.918077 53.2132,33.359762 50.015462,38.375878 44.000092,47.811855 33.522617,53.160421 28,63.047867 M 63.96703,22.791189 c 8.85223,-1.601822 4.667664,11.475996 -1.518284,12.964097 -9.276413,2.231545 -6.198803,-11.567682 1.518284,-12.964097 m -9.211414,19.802024 c 2.217742,4.789288 -1.803521,8.587874 -6.073492,6.146099 l -1.556029,1.622668 c 4.189827,2.826807 5.884008,3.764986 8.841221,2.280121 C 60.879127,50.1758 53.072557,44.082199 75,64.046573 l 1.776197,-2.163001 C 72.982574,56.787048 64.732602,50.417629 54.755616,42.593213 Z"
       id="path2" />
  </g>
</svg>
