<svg width="28" height="28" viewBox="0 0 28 28" fill="none" xmlns="http://www.w3.org/2000/svg">
<path d="M3.5 6.99992H5.83333M5.83333 6.99992H24.5M5.83333 6.99992L5.83333 23.3333C5.83333 23.9521 6.07917 24.5456 6.51675 24.9832C6.95434 25.4208 7.54783 25.6666 8.16667 25.6666H19.8333C20.4522 25.6666 21.0457 25.4208 21.4832 24.9832C21.9208 24.5456 22.1667 23.9521 22.1667 23.3333V6.99992M9.33333 6.99992V4.66659C9.33333 4.04775 9.57917 3.45425 10.0168 3.01667C10.4543 2.57908 11.0478 2.33325 11.6667 2.33325H16.3333C16.9522 2.33325 17.5457 2.57908 17.9832 3.01667C18.4208 3.45425 18.6667 4.04775 18.6667 4.66659V6.99992" stroke="#991800" stroke-width="2" stroke-linecap="round" stroke-linejoin="round"/>
</svg>
